<svg width="40" height="40" viewBox="0 0 40 40" fill="none" xmlns="http://www.w3.org/2000/svg">
<path d="M3.33398 9.99992C3.33398 9.07944 4.08018 8.33325 5.00065 8.33325H35.0007C35.9211 8.33325 36.6673 9.07944 36.6673 9.99992C36.6673 10.9204 35.9211 11.6666 35.0007 11.6666H5.00065C4.08018 11.6666 3.33398 10.9204 3.33398 9.99992Z" fill="white"/>
<path d="M3.33398 20.0536C3.33398 19.1332 4.08018 18.387 5.00065 18.387H35.0007C35.9211 18.387 36.6673 19.1332 36.6673 20.0536C36.6673 20.9741 35.9211 21.7203 35.0007 21.7203H5.00065C4.08018 21.7203 3.33398 20.9741 3.33398 20.0536Z" fill="white"/>
<path d="M5.00065 28.4407C4.08018 28.4407 3.33398 29.1869 3.33398 30.1073C3.33398 31.0278 4.08018 31.774 5.00065 31.774H35.0007C35.9211 31.774 36.6673 31.0278 36.6673 30.1073C36.6673 29.1869 35.9211 28.4407 35.0007 28.4407H5.00065Z" fill="white"/>
</svg>
